<?xml version="1.0" encoding="utf-8"?>
<!-- Generator: Adobe Illustrator 25.2.1, SVG Export Plug-In . SVG Version: 6.00 Build 0)  -->
<svg version="1.1" xmlns="http://www.w3.org/2000/svg" xmlns:xlink="http://www.w3.org/1999/xlink" x="0px" y="0px"
	 viewBox="0 0 120 56.3" style="enable-background:new 0 0 120 56.3;" xml:space="preserve">
<style type="text/css">
	.st0{display:none;}
	.st1{fill:#FFFFFF;}
</style>
<g id="base" class="st0">
</g>
<g id="Capa_1">
	<g>
		<path class="st1" d="M55,38v2.2H58c-0.1,1.4-1.3,2.3-3,2.3c-2.3,0-3.9-1.7-3.9-3.7c0-2.2,1.9-3.8,3.7-3.8c1.1,0,2.1,0.5,3,1.4
			l1.3-2c-1.2-1.1-2.8-1.8-4.3-1.9c-3.4,0-6.1,2.8-6.1,6.2c0,3.4,2.7,6.1,6.2,6.1c3.1,0,5.6-2.2,5.6-5.9c0-0.3,0-0.7-0.1-1H55z"/>
		<polygon class="st1" points="64.5,32.8 62.1,32.8 62.1,44.7 69.3,44.7 69.3,42.3 64.5,42.3 		"/>
		<path class="st1" d="M75.9,32.6c-3.4,0-6.2,2.8-6.2,6.2c0,3.4,2.8,6.1,6.1,6.1c3.4,0,6.2-2.8,6.2-6.1C82,35.4,79.3,32.6,75.9,32.6
			z M75.9,42.5c-2.1,0-3.7-1.7-3.7-3.7c0-2.1,1.7-3.8,3.7-3.8c2.1,0,3.8,1.7,3.8,3.8C79.6,40.8,77.9,42.5,75.9,42.5z"/>
		<path class="st1" d="M89.1,38c0.3,0,1.1-0.8,1.1-2c0-1.6-1.3-3.1-3.4-3.1h-3.2v11.8h4.5c2.4,0,3.7-1.8,3.7-3.6
			C91.7,39.2,90.3,38,89.1,38z M86,35.1h1c0.6,0,1.1,0.5,1.1,1.1c0,0.7-0.6,1.2-1.1,1.2h-1V35.1z M87.8,42.4H86v-2.8h1.9
			c1.1,0,1.6,0.7,1.6,1.4C89.4,41.8,88.6,42.4,87.8,42.4z"/>
		<polygon class="st1" points="93.1,44.7 100.2,44.7 100.2,42.3 95.5,42.3 95.5,39.9 99.5,39.9 99.5,37.5 95.5,37.5 95.5,35.2 
			100.2,35.2 100.2,32.8 93.1,32.8 		"/>
		<path class="st1" d="M109.9,36.7c0-2.1-1.8-3.8-4-3.8H102l0,11.8h2.4v-5.6l3.8,5.6h2.9l-3.4-4.7C108.9,39.5,109.9,38.2,109.9,36.7
			z M105.9,38.2l-1.5,0v-3h1.5c0.8,0,1.5,0.6,1.5,1.5C107.4,37.5,106.7,38.2,105.9,38.2z"/>
		<path class="st1" d="M116.8,37.6c-1.4-0.6-2.3-0.9-2.3-1.6c0-0.6,0.7-1.1,1.5-1.1c0.7,0,1.3,0.3,1.7,1l1.8-1.2
			c-0.5-1.4-1.9-2.1-3.5-2.1c-2.2,0-3.9,1.4-3.9,3.4c0,1.9,1.5,2.6,2.8,3.3c1.2,0.6,2.7,1.3,2.7,2.2c0,0.6-0.7,1.1-1.9,1.1
			c-1,0-1.8-0.4-2.3-1.2l-1.9,1.3c0.8,1.5,2.2,2.3,4.2,2.3c2.5,0,4.3-1.4,4.3-3.5C120,39.6,118.8,38.6,116.8,37.6z"/>
		<rect x="31" y="27.8" class="st1" width="4.5" height="17.1"/>
		<polygon class="st1" points="50.2,27.8 37.5,27.8 37.5,32 41.6,32 41.6,44.9 46.1,44.9 46.1,32 50.2,32 		"/>
		<path class="st1" d="M39.3,22.8c0,0.3,0.1,0.6,0.1,0.8c0.4,1.3,1.7,2.3,2.9,2c1.2-0.2,1.8-1.4,1.7-2.8c-0.1-1.3-1.1-3-2.9-2.8
			c-1.3,0.2-1.8,1.2-1.8,2.2c-0.8-0.1-1.6-0.1-2.4-0.1c-0.1,0-0.3,0-0.4,0c-0.1-2-1.7-3.5-3.4-3.6c0-0.9,0-1.8,0-2.8
			c1.4-0.1,2.3-0.9,2.2-2.4c-0.1-1.3-1-2.4-2.3-2.6c0-0.3,0-0.6,0-0.9c0-0.5,0-0.9,0-1.4c1.4-0.1,2.6-0.8,2.6-2c0,0,0,0,0,0
			c0.5,0,1,0.1,1.6,0.2c1,0.1,2.1,0.3,3.1,0.5c1,0.2,2,0.4,3,0.7c0.4,0.1,0.8,0.2,1.3,0.4c0.1,0.5,0.5,1.1,0.9,1.6
			c0.4,0.4,0.9,0.8,1.4,0.9c0.2,0.7,0.3,1.4,0.5,2.1c0,0.2,0.1,0.5,0.1,0.7c-0.3-0.1-0.5,0-0.8,0.1c-0.7,0.5-0.6,1.7-0.1,2.5
			c0.3,0.6,1,1.2,1.5,1.4c0.1,0.6,0.2,1.3,0.2,1.9c0.1,0.6,0.1,1.1,0.2,1.7c0,0.2,0,0.4,0.1,0.7c-0.1,0-0.2,0-0.3,0
			c-1,0.1-0.8,1.4-0.7,2.2c0.1,0.7,0.7,1.7,1.6,1.6c0.8-0.1,1-1.2,0.8-2.1c-0.1-0.6-0.5-1.4-1.1-1.6c0-0.3,0-0.5-0.1-0.8
			c-0.1-0.6-0.1-1.1-0.2-1.7c-0.1-0.6-0.2-1.3-0.2-1.9c0.2,0,0.3-0.1,0.5-0.2c0.4-0.3,0.5-0.9,0.4-1.4c0.3,0.1,0.6,0.2,0.9,0.3
			c0.3,0.1,0.6,0.2,0.8,0.3c0.1,0.4,0.2,0.8,0.4,1.3c0.7,1.8,1.9,2.2,2.3,2.1c0.4-0.2,0.6-1,0.4-2c0.2,0.1,0.4,0.2,0.5,0.3
			c0.1,0.2,0.1,0.5,0.2,0.8c0.5,1.5,1.2,2.5,1.4,2.4s0.2-0.8-0.2-2.5s-1.2-2.7-1.6-2.5c-0.2,0.1-0.2,0.7,0.1,1.7
			c-0.2-0.1-0.4-0.2-0.5-0.3c-0.1-0.4-0.2-0.8-0.4-1.2c-0.6-1.4-1.2-2-1.7-2.2c-0.1-0.4-0.2-0.7-0.3-1.1c0.5,0.3,0.8,0.3,0.8,0
			c0-0.7-0.4-1.7-0.8-2.4c-1-1.4-2-2.3-2.4-1.9c-0.4,0.4,0,1.8,1,3c0.4,0.6,1,1,1.4,1.3l0.3,1.2c-0.2-0.1-0.5,0-0.6,0
			c-0.3,0.2-0.5,0.9-0.3,2c-0.2-0.1-0.5-0.2-0.7-0.3c-0.3-0.1-0.7-0.3-1-0.4c-0.1-0.3-0.2-0.5-0.2-0.7c-0.3-0.7-0.8-1.2-1.3-1.4
			c-0.1-0.3-0.1-0.5-0.2-0.8c-0.1-0.7-0.3-1.3-0.5-2c0.3,0.1,0.6,0.1,0.8-0.1c0.6-0.5,0-1.7-0.7-2.5c-0.4-0.4-1.8-1.5-2.4-1
			c-0.2,0.2-0.3,0.5-0.2,0.9c-0.4-0.1-0.8-0.2-1.2-0.4c-1-0.3-2-0.6-3-0.8c-1-0.2-2-0.4-3.1-0.6c-0.5-0.1-1.1-0.2-1.6-0.2
			c-0.3-1.4-1.8-2.3-3.3-2.3c-1.7,0-2.8,1-2.8,1.9c0,1.4,1.3,2.8,3,2.9c0.1,0,0.1,0,0.2,0c0,0.5,0,0.9,0,1.4c0,0.3,0,0.6,0,0.9
			c-1.4,0-2.3,0.8-2.4,2.1l-0.3,0l-1.5,0c-0.5,0-1,0-1.5,0l-1,0c0-0.5-0.3-1.1-1.1-1.4c-0.2-0.1-0.4-0.1-0.6-0.1c0-0.6,0-1.1,0-1.7
			c0-0.5,0.1-1.1,0.1-1.6c0,0,0.1,0,0.1,0c1.6-0.2,3-1.2,2.9-2.4c-0.1-1-1.2-1.8-2.6-1.8C25,3.4,25,3,25.1,2.6c0.1,0,0.2,0,0.2,0
			c1.3-0.2,2.4-1,2.3-1.8C27.5,0,26.4-0.1,25.1,0c-1.3,0.1-2.4,0.8-2.3,1.6c0.1,0.7,1,1.1,2.1,1c-0.1,0.4-0.1,0.8-0.2,1.3
			c-0.1,0-0.2,0-0.4,0c-1.3,0.2-2.3,1.1-2.5,2C21.6,6,21.3,6,21,6c-0.5,0.1-0.9,0.1-1.4,0.2c0,0-0.1,0-0.1,0c0-0.2,0-0.4-0.1-0.6
			c-0.3-1.1-1.7-0.8-2.6-0.4c-1.4,0.7-2.3,1.8-1.9,2.9c0.2,0.7,1,0.8,1.7,0.7c0,0,0,0.1,0,0.1c-0.2,0.7-0.3,1.4-0.4,2.1
			c0,0.2-0.1,0.4-0.1,0.6c-0.7,0.1-1.5,0.6-1.9,1.9c0,0.1,0,0.2-0.1,0.2c-0.1,0-0.2,0-0.4,0.1c-0.5,0.1-1,0.2-1.5,0.3
			c-0.2,0-0.5,0.1-0.7,0.2c0.2-1.2-0.3-2.2-1.3-2.2c-1.2,0-2.4,1.2-2.9,2.8c-0.5,1.6-0.1,3,1.1,3c0.1,0,0.1,0,0.2,0
			c-0.1,0.3-0.1,0.6-0.2,0.9c-0.1,0.5-0.1,1-0.2,1.5c0,0.1,0,0.2,0,0.3c-0.7,0.2-1.4,1.1-1.6,2.4c0,0,0,0,0,0l-0.4,0.1l-1.2,0.2
			c0.1-1.2-0.3-2.5-0.9-2.6c-0.8-0.1-1.7,1.2-1.9,2.9s0.1,2.8,1,2.9c0,0,0,0,0,0c0,0.5,0,1,0,1.5c0,0.1,0,0.3,0,0.4
			c-0.5,0-1.3,0.8-1.3,2.7c-0.2,0-0.5-0.1-0.7-0.1c0-1.2-0.3-2.1-0.7-2.2C0,28.9,0,30.8,0,31.1c0,0.3,0.1,2,0.6,2.2
			c0,0.4,0,0.8,0.1,1.1c0,0.4,0.1,0.8,0.1,1.2c-0.3,0.1-0.2,1.1,0.1,2.2c0.2,0.8,0.4,1.4,0.7,1.8c0,0.1,0,0.1,0,0.2
			c0.2,0.7,0.3,1.3,0.5,1.9c-0.1-0.1-0.2-0.1-0.2,0c0,0.2,0,0.7,0.5,1.8s0.8,1.4,1.1,1.7c0.2,0.2,0.2-0.2,0-1
			c0.1,0.1,0.2,0.1,0.2,0.2c0.2,0.2,0.5,0.4,0.8,0.6c0,0,0,0,0,0c0.1,0.3,0.3,0.6,0.4,0.9c0.4,0.7,0.9,1.1,1.2,1.4
			C6.5,48.3,6.8,49,7,49.4c-0.2-0.2-0.4-0.3-0.6-0.3C6,49,6.1,49.6,7.2,50.8c2.5,2.8,1.6,0.6,1-0.1c-0.3-0.4-0.7-0.8-1-1.1l-0.9-2.1
			c0.2,0.1,0.4,0.2,0.5,0.1c0.2-0.1,0.3-0.4,0.1-1c0.1,0,0.1,0.1,0.2,0.1c0.3,0.1,0.6,0.3,0.9,0.4c0.1,0.1,0.3,0.1,0.5,0.2l0.1,0
			c0.2,0.4,0.4,0.9,0.7,1.3c0.4,0.5,0.9,0.9,1.4,1.1c0.2,0.7,0.5,1.4,0.7,1.9c-0.4-0.2-0.7-0.2-0.9-0.1c-0.4,0.4,0.1,1.2,0.8,1.9
			c0.7,0.7,1.8,1.3,2.2,1c0.2-0.2,0.1-0.4,0-0.7c0.6,0.2,1.5,0.6,2.3,0.8c0.1,0.4,0.5,0.9,1,1.2c0.8,0.6,2.4,0.8,2.6,0.5
			s0.5-1-0.7-2c-1.2-1.1-2.6-0.7-2.9-0.4c-0.1,0.2-0.1,0.4-0.1,0.6l-2.3-0.7c-0.2-0.4-0.5-0.8-0.8-1.2c-0.3-0.3-0.7-0.6-1.1-0.8
			l-0.5-1.9c0.2,0,0.5-0.1,0.6-0.2c0.5-0.6,0.2-1.7-0.6-2.8c-0.3-0.4-0.7-0.7-1-0.9L9,42.4c0,0,0.1,0,0.1,0c0.8,0,1.2-1,0.7-2.3
			c-0.5-1.3-1.3-1.6-1.9-1.4S7.2,40,7.4,40.8c0.2,0.7,0.8,1.3,1.4,1.5c0.2,0.9,0.4,2.1,0.7,3.3c-0.4-0.1-0.7-0.1-0.9,0.1
			c-0.3,0.2-0.3,0.7-0.2,1.1c-0.1,0-0.2-0.1-0.3-0.1c-0.3-0.1-0.6-0.2-0.9-0.4c-0.1-0.1-0.3-0.1-0.4-0.2c-0.1-0.2-0.2-0.5-0.4-0.8
			c-0.7-1.3-1.4-1.6-1.8-1.7c-0.4-0.1-0.3,0.5-0.1,1.1c-0.2-0.1-0.4-0.3-0.6-0.5c-0.1-0.1-0.3-0.2-0.4-0.4c-0.1-0.2-0.2-0.4-0.3-0.7
			c-0.3-0.7-0.7-1.2-0.9-1.5l0-0.1c-0.1-0.2-0.1-0.4-0.2-0.7l-0.2-0.7c-0.1-0.2-0.1-0.4-0.2-0.6c0.1,0,0.1,0,0.1,0
			c0.2-0.1,0.4-0.8,0.1-2c-0.2-1.1-0.7-2-1-2.1c0-0.4-0.1-0.8-0.1-1.2c0-0.4-0.1-0.7-0.1-1.1c0.4-0.1,0.5-1.5,0.5-2
			c0.2,0,0.5,0.1,0.7,0.1c0,1.8,0.9,3,1.4,3.1c0,0.1,0,0.3,0,0.4c0,0.6,0.1,1.1,0.1,1.7c-0.1,0-0.1,0-0.2,0C2.6,37,2.6,38.2,3,39.4
			c0.6,1.9,1.6,2.3,1.9,2s0.6-1.6,0.1-2.8c-0.4-1-1-1.8-1.5-1.9c0-0.6-0.1-1.2-0.1-1.7c0-0.1,0-0.3,0-0.4c0,0,0,0,0,0
			c0.2-0.1,1.3-0.4,1.3-2.8c0,0,0,0,0,0c0.5,0,1,0.1,1.5,0.1c1.9,0.2,3.9,0.3,5.8,0.5c0.3,0,0.5,0,0.8,0c0.1,1.1,0.7,2,1.7,2.4
			c0.1,1.2,0.2,2.4,0.3,3.6c-0.3,0-0.6,0.1-0.8,0.2c-1.3,0.5-1.6,1.9-1.5,2.9c0,1,1.3,3.3,3.4,3.3s2.5-2,2.2-3.6
			c-0.3-1.2-1.5-2.6-2.9-2.8c0-0.3,0-0.7-0.1-1c0-0.7-0.1-1.5-0.1-2.2c0-0.1,0-0.2,0-0.2c1.1,0.2,2-1,2.1-2.2c0.3,0,0.6,0,0.9,0
			c1,0,1.9,0.1,2.9,0.1c0.3,0,0.7,0,1,0c0.1,1,0.7,1.8,1.9,1.8c1.3,0,1.7-1.3,1.7-1.9c0-0.6-0.5-2.2-2-2c-0.9,0.1-1.6,0.7-1.6,1.7
			c-0.3,0-0.6,0-0.9,0c-1,0-1.9,0-2.9,0c-0.3,0-0.6,0-0.9,0c-0.1-1.3-0.7-2.5-2.1-2.5c0-1.2,0-2.3,0.1-3.5c1.4-0.1,2.7-1.3,3.2-3.3
			c0-0.2,0.1-0.4,0.1-0.5c1,0,2-0.1,3-0.1c0,0,0,0,0,0c0,1,0.5,2.6,2.6,2.6c1.4,0,2.4-1.4,2.4-2.7c1,0,2.1,0,3.1,0c0,0,0,0,0,0.1
			c0,2.1,1.7,3.9,3.8,3.9c1.9,0,3.3-1.6,3.4-3.7c0,0,0,0,0,0c0.1,0,0.2,0,0.4,0C37.7,22.8,38.5,22.8,39.3,22.8z M16.4,11.2
			c0.1-0.7,0.2-1.4,0.4-2.2l0-0.2c0.3-0.1,0.7-0.2,0.9-0.3c0.7-0.4,1.6-1.2,1.7-2.1c0.1,0,0.1,0,0.2,0c0.5-0.1,0.9-0.1,1.4-0.1
			c0.3,0,0.5,0,0.8-0.1c0,0.1,0,0.2,0,0.3c0.1,1,1,1.6,2.3,1.6c-0.1,0.5-0.1,1.1-0.1,1.6c0,0.6-0.1,1.2-0.1,1.8
			c-0.8,0.1-1.4,0.7-1.6,1.4c0,0.1,0,0.1,0,0.2l-1.2,0.1c-1.1,0.1-2.2,0.2-3.2,0.3c0-0.8-0.4-1.6-1.3-1.6c-0.1,0-0.1,0-0.2,0
			C16.4,11.6,16.4,11.4,16.4,11.2z M8.6,20.5c0.1-0.5,0.1-1,0.2-1.5L9,18c1-0.2,1.8-1,2.4-2.7c0.1-0.2,0.1-0.4,0.2-0.6
			c0.3-0.1,0.5-0.1,0.8-0.2c0.5-0.1,1-0.2,1.5-0.3c0.1,0,0.2,0,0.3,0c-0.1,0.8,0.2,1.6,1.1,1.7c0.1,0,0.2,0,0.3,0
			C15.3,17,15.1,18,15,19.1c-1.6,0.3-2.6,2-2.8,3.3c0,0.1,0,0.1,0,0.2c-0.4,0-0.8,0.1-1.2,0.1c-0.3,0-0.6,0.1-1,0.1
			c0-1.1-0.4-1.8-1-2c-0.1,0-0.3-0.1-0.4-0.1C8.6,20.7,8.6,20.6,8.6,20.5z M6.3,31.7c-0.5,0-1-0.1-1.5-0.1c-0.1-2-0.9-2.9-1.4-3
			c0-0.2,0-0.3,0-0.5c0-0.5,0-1,0-1.5C4.2,26.6,4.8,25.3,5,24c0-0.1,0-0.2,0-0.3l1.2-0.2l0.4-0.1c-0.1,1.5,0.5,2.3,1.2,2.3
			c0.7,0,1.8-0.8,2-2.3c0-0.1,0-0.3,0-0.4c0.3,0,0.7-0.1,1-0.1c0.4,0,0.8-0.1,1.2-0.1c0,1.5,0.8,3.2,2.2,3.4c0,0,0.1,0,0.1,0
			c0,1.2-0.1,2.3-0.1,3.5c-1,0.2-1.5,1.2-1.6,2.3c-0.2,0-0.5,0-0.7,0C10.2,32,8.2,31.9,6.3,31.7z M28.7,22l-1.2,0
			c-0.4,0-0.8,0-1.3,0c-0.1-1.1-0.7-2.4-2.4-2.4c-1.7,0-2.4,1.5-2.5,2.4l-0.9,0c-0.7,0-1.5,0.1-2.2,0.1c0-1.7-1.2-2.8-2.1-3
			c-0.2,0-0.4-0.1-0.6-0.1c0.1-1.1,0.2-2.1,0.3-3.2c0.9-0.2,1.6-0.8,2-1.8c0-0.1,0.1-0.3,0.1-0.4c1.1-0.1,2.2-0.2,3.3-0.3l1.1-0.1
			c0,0.8,0.3,1.4,1.1,1.6c1,0.2,1.8-0.1,2.3-0.8c0.1-0.2,0.3-0.5,0.3-0.9l1.1,0c0.5,0,1,0,1.5,0l1.5,0l0.3,0
			c0.1,1.3,1.1,2.5,2.4,2.6c0,0.9,0,1.9,0,2.8c-1.9,0.1-3.1,1.6-3.3,3.3L28.7,22z"/>
	</g>
</g>
</svg>
