<svg xmlns="http://www.w3.org/2000/svg" version="1.1" xmlns:xlink="http://www.w3.org/1999/xlink" xmlns:svgjs="http://svgjs.com/svgjs" width="1440" height="800" preserveAspectRatio="none" viewBox="0 0 1440 800"><g mask="url(&quot;#SvgjsMask1026&quot;)" fill="none"><rect width="1440" height="800" x="0" y="0" fill="url(#SvgjsLinearGradient1027)"></rect><path d="M1 800L801 0L1243.5 0L443.5 800z" fill="url(#SvgjsLinearGradient1028)"></path><path d="M567.2 800L1367.2 0L1778.2 0L978.2 800z" fill="url(#SvgjsLinearGradient1028)"></path><path d="M1391 800L591 0L249 0L1049 800z" fill="url(#SvgjsLinearGradient1029)"></path><path d="M875.8 800L75.79999999999995 0L-408.70000000000005 0L391.29999999999995 800z" fill="url(#SvgjsLinearGradient1029)"></path><path d="M827.8109072102382 800L1440 187.81090721023816L1440 800z" fill="url(#SvgjsLinearGradient1028)"></path><path d="M0 800L612.1890927897618 800L 0 187.81090721023816z" fill="url(#SvgjsLinearGradient1029)"></path></g><defs><mask id="SvgjsMask1026"><rect width="1440" height="800" fill="#ffffff"></rect></mask><linearGradient x1="11.11%" y1="-20%" x2="88.89%" y2="120%" gradientUnits="userSpaceOnUse" id="SvgjsLinearGradient1027"><stop stop-color="#0e2a47" offset="0"></stop><stop stop-color="rgba(153, 0, 158, 1)" offset="1"></stop></linearGradient><linearGradient x1="0%" y1="100%" x2="100%" y2="0%" id="SvgjsLinearGradient1028"><stop stop-color="rgba(15, 70, 185, 0.2)" offset="0"></stop><stop stop-opacity="0" stop-color="rgba(15, 70, 185, 0.2)" offset="0.66"></stop></linearGradient><linearGradient x1="100%" y1="100%" x2="0%" y2="0%" id="SvgjsLinearGradient1029"><stop stop-color="rgba(15, 70, 185, 0.2)" offset="0"></stop><stop stop-opacity="0" stop-color="rgba(15, 70, 185, 0.2)" offset="0.66"></stop></linearGradient></defs></svg>